<?xml version="1.0" encoding="UTF-8"?>
<svg id="autodesk-logo-cmyk-white-1line" xmlns="http://www.w3.org/2000/svg" width="1760" height="298" viewBox="0 0 1760 298">
  <g id="logo">
    <g id="wordmark">
      <polygon points="1689.63577 70.27743 1641.69251 70.27743 1584.2781 134.39973 1584.2781 70.27743 1544.0294 70.27743 1544.22617 228.11682 1584.2781 228.11682 1584.2781 168.13802 1638.73247 228.11682 1689.63577 228.11682 1616.24051 150.18381 1689.63577 70.27743" fill="#fff"/>
      <path d="M1479.1179,135.18893l-36.69763-4.1435c-21.50528-2.36761-26.83223-7.69456-26.83223-14.99417,0-8.08952,11.04885-15.38983,32.55414-15.38983,20.71608,0,31.56746,7.69526,33.54082,19.33515h39.4595c-1.97266-33.34334-29.98905-54.05942-70.83018-54.05942-48.53569,0-73.00031,19.33515-73.00031,53.46769,0,27.81961,16.17833,40.84113,49.71915,44.3922l37.28936,3.94602c14.20567,1.57841,20.71608,7.10284,20.71608,14.20567,0,8.08952-9.46975,15.38913-32.35666,15.38913-26.43798,0-37.09188-6.70788-38.86777-20.12435h-38.67029c1.77518,36.30268,25.4513,54.84932,76.15713,54.84932,46.36486,0,72.21111-20.32183,72.21111-50.9033,0-26.63546-15.38913-42.61631-44.3922-45.9706Z" fill="#fff"/>
      <polygon points="1230.32399 228.11682 1357.38442 228.11682 1357.38442 193.98427 1270.57339 193.98427 1270.57339 165.37546 1340.41688 165.37546 1340.41688 131.04544 1270.57339 131.04544 1270.57339 104.40998 1357.38442 104.40998 1357.38442 70.27743 1230.32399 70.27743 1230.32399 228.11682" fill="#fff"/>
      <path d="M1135.62092,70.27743h-73.78952V228.11682h73.78952c56.62451,0,72.21111-21.11103,72.21111-80.10385,0-55.44035-14.99417-77.73554-72.21111-77.73554Zm-1.57841,123.70684h-31.96241V104.40998h31.96241c25.25453,0,32.75161,6.90606,32.75161,43.60299,0,33.54152-8.48377,45.9713-32.75161,45.9713Z" fill="#fff"/>
      <path d="M952.52771,65.93716c-57.41371,0-87.20598,35.3167-87.20598,82.86571,0,47.74579,29.79227,83.25996,87.20598,83.25996,57.61119,0,87.40346-35.51418,87.40346-83.25996,0-47.54901-29.79227-82.86571-87.40346-82.86571Zm0,130.6115c-29.79227,0-46.16808-18.15099-46.16808-47.74579,0-29.00307,16.37581-47.35224,46.16808-47.35224,29.98975,0,46.16808,18.34917,46.16808,47.35224,0,29.5948-16.17833,47.74579-46.16808,47.74579Z" fill="#fff"/>
      <polygon points="716.95278 104.40998 767.85609 104.40998 767.85609 228.11682 808.10479 228.11682 808.10479 104.40998 858.81062 104.40998 858.81062 70.27743 716.95278 70.27743 716.95278 104.40998" fill="#fff"/>
      <path d="M658.35562,167.74377c0,20.5186-12.62726,28.80559-34.13324,28.80559-20.91355,0-34.5268-8.68124-34.5268-28.80559V70.27743h-40.2494v102.00408c0,45.57565,40.64365,59.78132,74.7762,59.78132,33.93577,0,74.38194-14.20567,74.38194-59.78132V70.27743h-40.2487v97.46633Z" fill="#fff"/>
      <path d="M431.65872,70.27743l-60.57053,157.83938h41.63033l10.57267-29.5948h67.61454l10.3997,29.5948h43.01126l-61.35973-157.83938h-51.29826Zm3.61479,94.70377l22.10471-61.87513,21.74197,61.87513h-43.84669Z" fill="#fff"/>
    </g>
    <path id="symbol" d="M71.59598,228.12624l141.34377-87.91725h73.3182c2.25593,0,4.28625,1.8047,4.28625,4.28625,0,2.03032-.90247,2.93279-2.03032,3.60964l-69.42171,41.61139c-4.51187,2.70717-6.09119,8.12151-6.09119,12.18214l-.0697,26.22783h88.21573V75.68903c0-2.93266-2.25593-5.41422-5.63971-5.41422h-84.14663L70.36423,157.80522v70.32102h1.23175Z" fill="#fff"/>
  </g>
</svg>