<?xml version="1.0" encoding="UTF-8" standalone="no"?>
<!-- Generator: Adobe Illustrator 20.1.0, SVG Export Plug-In . SVG Version: 6.00 Build 0)  -->

<svg
   version="1.1"
   id="Layer_1"
   x="0px"
   y="0px"
   viewBox="0 0 71.3 71.3"
   style="enable-background:new 0 0 71.3 71.3;"
   xml:space="preserve"
   sodipodi:docname="logo-vis.svg"
   inkscape:version="1.2.1 (9c6d41e4, 2022-07-14)"
   xmlns:inkscape="http://www.inkscape.org/namespaces/inkscape"
   xmlns:sodipodi="http://sodipodi.sourceforge.net/DTD/sodipodi-0.dtd"
   xmlns="http://www.w3.org/2000/svg"
   xmlns:svg="http://www.w3.org/2000/svg"><defs
   id="defs151" /><sodipodi:namedview
   id="namedview149"
   pagecolor="#ffffff"
   bordercolor="#999999"
   borderopacity="1"
   inkscape:showpageshadow="0"
   inkscape:pageopacity="0"
   inkscape:pagecheckerboard="0"
   inkscape:deskcolor="#d1d1d1"
   showgrid="false"
   inkscape:zoom="3.3099578"
   inkscape:cx="4.8338985"
   inkscape:cy="35.650002"
   inkscape:window-width="1309"
   inkscape:window-height="456"
   inkscape:window-x="0"
   inkscape:window-y="38"
   inkscape:window-maximized="0"
   inkscape:current-layer="Layer_1" />
<style
   type="text/css"
   id="style132">
	.st0{fill:#f8f9fa;}
</style>
<g
   id="g146"
   style="fill:#000000">
	<path
   class="st0"
   d="M24,24c-2.2,2.2-5.7,2.2-7.8,0c-2.2-2.2-2.2-5.7,0-7.8c2.2-2.2,5.6-2.2,7.8,0C26.2,18.3,26.2,21.8,24,24"
   id="path134"
   style="fill:#000000" />
	<path
   class="st0"
   d="M47.4,47.4c2.2-2.2,5.6-2.2,7.8,0c2.2,2.2,2.2,5.6,0,7.8c-2.2,2.2-5.6,2.2-7.8,0C45.3,53,45.3,49.5,47.4,47.4"
   id="path136"
   style="fill:#000000" />
	<path
   class="st0"
   d="M47.4,16.2c2.2-2.2,5.6-2.2,7.8,0c2.2,2.2,2.2,5.6,0,7.8c-2.2,2.2-5.6,2.2-7.8,0   C45.3,21.8,45.3,18.3,47.4,16.2"
   id="path138"
   style="fill:#000000" />
	<path
   class="st0"
   d="M16.2,47.4c2.2-2.2,5.6-2.2,7.8,0c2.2,2.2,2.2,5.6,0,7.8c-2.2,2.2-5.7,2.2-7.8,0C14,53,14,49.5,16.2,47.4"
   id="path140"
   style="fill:#000000" />
	<path
   class="st0"
   d="M43.5,40.7c-0.1,0-0.2,0-0.3,0c-1.3,0.1-2.4-0.8-2.9-1.2c0,0-0.1-0.1-0.3-0.3c1.7-2,1.7-5,0-7.1   c0.2-0.2,0.3-0.3,0.4-0.4c0.5-0.4,1.7-1.3,2.8-1.1l0,0c0.1,0,0.2,0,0.4,0c1.5,0,2.8-1.2,2.8-2.8c0-1.5-1.2-2.8-2.8-2.8   c-1.5,0-2.8,1.2-2.8,2.8c0,0.1,0,0.2,0,0.3v0c0.1,1.3-0.8,2.5-1.2,2.9c0,0-0.1,0.1-0.3,0.3c-2.1-1.7-5.1-1.7-7.1,0   c-0.2-0.2-0.4-0.3-0.4-0.4c-0.4-0.4-1.3-1.7-1.1-2.8v0c0-0.1,0-0.2,0-0.4c0-1.5-1.2-2.8-2.8-2.8c-1.5,0-2.8,1.2-2.8,2.8   c0,1.5,1.2,2.8,2.8,2.8c0.1,0,0.2,0,0.3,0h0c1.3-0.1,2.4,0.8,2.9,1.2c0,0,0.1,0.2,0.4,0.4c-1.7,2-1.7,5,0,7   c-0.2,0.2-0.4,0.4-0.4,0.4c-0.5,0.4-1.7,1.3-2.8,1.2c0,0,0,0,0,0c-0.1,0-0.2,0-0.4,0c-1.5,0-2.8,1.2-2.8,2.8c0,1.5,1.2,2.7,2.8,2.7   c1.5,0,2.8-1.2,2.8-2.7c0-0.1,0-0.2,0-0.3l0,0c-0.1-1.3,0.8-2.4,1.2-2.9c0,0,0.2-0.1,0.4-0.4c2,1.7,5.1,1.7,7.1,0   c0.2,0.2,0.3,0.3,0.3,0.3c0.4,0.5,1.3,1.7,1.2,2.8c0,0,0,0,0,0c0,0.1,0,0.2,0,0.4c0,1.5,1.2,2.7,2.8,2.7c1.5,0,2.8-1.2,2.8-2.7   C46.2,41.9,45,40.7,43.5,40.7"
   id="path142"
   style="fill:#000000" />
	<path
   class="st0"
   d="M15.2,32.7c-0.7,0.7-1,1.5-1.2,2.4h-0.1c-0.6,0-2.4-0.2-2.9-1.3c-0.3-0.7-0.7-1.4-1.3-2   c-2.2-2.2-5.6-2.2-7.8,0c-2.2,2.2-2.2,5.6,0,7.8c2.2,2.2,5.7,2.2,7.8,0c0.6-0.6,1-1.2,1.2-1.9c0.7-1.3,2.4-1.3,3-1.3   c0,0,0.1,0,0.1,0c0.1,0.8,0.5,1.6,1.2,2.3c1.6,1.6,4.2,1.6,5.9,0c1.6-1.6,1.6-4.2,0-5.9C19.4,31.1,16.8,31.1,15.2,32.7 M37.6,60.4   c-1.2-0.7-1.3-2.4-1.3-3c0,0,0-0.1,0-0.1c0.8-0.1,1.7-0.5,2.3-1.2c1.6-1.6,1.6-4.2,0-5.9c-1.6-1.6-4.2-1.6-5.8,0   c-1.6,1.6-1.6,4.2,0,5.9c0.6,0.7,1.5,1,2.3,1.2v0.2c0,0.7-0.2,2.5-1.5,3c-0.1,0-0.2,0.1-0.3,0.2c-0.5,0.3-1,0.6-1.4,1   c-2.2,2.2-2.2,5.7,0,7.8c2.2,2.2,5.6,2.2,7.8,0c2.2-2.2,2.2-5.6,0-7.8C39,61.1,38.3,60.7,37.6,60.4 M31.8,1.8   c-2.2,2.2-2.2,5.7,0,7.8c0.6,0.6,1.3,1,2,1.3c1.2,0.7,1.3,2.4,1.3,3c0,0,0,0.1,0,0.1c-0.8,0.1-1.7,0.5-2.3,1.2   c-1.6,1.6-1.6,4.2,0,5.9c1.6,1.6,4.2,1.6,5.8,0c1.6-1.6,1.6-4.2,0-5.9c-0.7-0.7-1.5-1-2.3-1.2l0-0.2c0-0.7,0.2-2.5,1.5-3   c0.1,0,0.2-0.1,0.3-0.2c0.5-0.3,1-0.6,1.4-1c2.2-2.2,2.2-5.6,0-7.8C37.5-0.3,34-0.3,31.8,1.8 M69.5,31.8c-2.2-2.2-5.7-2.2-7.8,0   c-0.6,0.6-1,1.2-1.2,1.9c-0.7,1.2-2.4,1.3-3,1.3c0,0-0.1,0-0.1,0c-0.1-0.8-0.5-1.6-1.2-2.3c-1.6-1.6-4.2-1.6-5.8,0   c-1.6,1.6-1.6,4.2,0,5.9c1.6,1.6,4.2,1.6,5.8,0c0.7-0.7,1.1-1.5,1.2-2.4h0.1c0.6,0,2.3,0.2,2.9,1.3c0.3,0.7,0.7,1.4,1.3,2   c2.2,2.2,5.6,2.2,7.8,0C71.6,37.4,71.6,33.9,69.5,31.8"
   id="path144"
   style="fill:#000000" />
</g>
</svg>
